<mxfile host="app.diagrams.net" modified="2022-03-27T09:20:01.918Z" agent="5.0 (Macintosh; Intel Mac OS X 10_15_7) AppleWebKit/537.36 (KHTML, like Gecko) Chrome/99.0.4844.83 Safari/537.36" etag="2VF2GxOzzX3O8HlP0A-d" version="17.2.4" type="github">
  <diagram id="C5RBs43oDa-KdzZeNtuy" name="Page-1">
    <mxGraphModel dx="1186" dy="589" grid="1" gridSize="10" guides="1" tooltips="1" connect="1" arrows="1" fold="1" page="1" pageScale="1" pageWidth="827" pageHeight="1169" math="0" shadow="0">
      <root>
        <mxCell id="WIyWlLk6GJQsqaUBKTNV-0" />
        <mxCell id="WIyWlLk6GJQsqaUBKTNV-1" parent="WIyWlLk6GJQsqaUBKTNV-0" />
        <mxCell id="iIN_RJv5hdqwbPylUk_M-2" value="" style="edgeStyle=orthogonalEdgeStyle;rounded=0;orthogonalLoop=1;jettySize=auto;html=1;" edge="1" parent="WIyWlLk6GJQsqaUBKTNV-1" source="WIyWlLk6GJQsqaUBKTNV-3" target="WIyWlLk6GJQsqaUBKTNV-6">
          <mxGeometry relative="1" as="geometry" />
        </mxCell>
        <mxCell id="WIyWlLk6GJQsqaUBKTNV-3" value="显示姓名，手牌" style="rounded=1;whiteSpace=wrap;html=1;fontSize=12;glass=0;strokeWidth=1;shadow=0;" parent="WIyWlLk6GJQsqaUBKTNV-1" vertex="1">
          <mxGeometry x="160" y="80" width="120" height="40" as="geometry" />
        </mxCell>
        <mxCell id="iIN_RJv5hdqwbPylUk_M-3" value="Yes" style="edgeStyle=orthogonalEdgeStyle;rounded=0;orthogonalLoop=1;jettySize=auto;html=1;" edge="1" parent="WIyWlLk6GJQsqaUBKTNV-1" source="WIyWlLk6GJQsqaUBKTNV-6" target="WIyWlLk6GJQsqaUBKTNV-12">
          <mxGeometry x="-1" y="20" relative="1" as="geometry">
            <mxPoint as="offset" />
          </mxGeometry>
        </mxCell>
        <mxCell id="iIN_RJv5hdqwbPylUk_M-15" style="edgeStyle=orthogonalEdgeStyle;rounded=0;orthogonalLoop=1;jettySize=auto;html=1;entryX=0;entryY=0.5;entryDx=0;entryDy=0;" edge="1" parent="WIyWlLk6GJQsqaUBKTNV-1" source="WIyWlLk6GJQsqaUBKTNV-6" target="iIN_RJv5hdqwbPylUk_M-14">
          <mxGeometry relative="1" as="geometry" />
        </mxCell>
        <mxCell id="WIyWlLk6GJQsqaUBKTNV-6" value="当前牌是否&lt;br&gt;为空？" style="rhombus;whiteSpace=wrap;html=1;shadow=0;fontFamily=Helvetica;fontSize=12;align=center;strokeWidth=1;spacing=6;spacingTop=-4;" parent="WIyWlLk6GJQsqaUBKTNV-1" vertex="1">
          <mxGeometry x="170" y="150" width="100" height="80" as="geometry" />
        </mxCell>
        <mxCell id="iIN_RJv5hdqwbPylUk_M-4" value="" style="edgeStyle=orthogonalEdgeStyle;rounded=0;orthogonalLoop=1;jettySize=auto;html=1;" edge="1" parent="WIyWlLk6GJQsqaUBKTNV-1" source="WIyWlLk6GJQsqaUBKTNV-10" target="WIyWlLk6GJQsqaUBKTNV-11">
          <mxGeometry relative="1" as="geometry" />
        </mxCell>
        <mxCell id="iIN_RJv5hdqwbPylUk_M-5" value="Yes" style="edgeLabel;html=1;align=center;verticalAlign=middle;resizable=0;points=[];" vertex="1" connectable="0" parent="iIN_RJv5hdqwbPylUk_M-4">
          <mxGeometry x="-0.6636" y="-1" relative="1" as="geometry">
            <mxPoint x="21" y="-9" as="offset" />
          </mxGeometry>
        </mxCell>
        <mxCell id="WIyWlLk6GJQsqaUBKTNV-10" value="是否有效" style="rhombus;whiteSpace=wrap;html=1;shadow=0;fontFamily=Helvetica;fontSize=12;align=center;strokeWidth=1;spacing=6;spacingTop=-4;" parent="WIyWlLk6GJQsqaUBKTNV-1" vertex="1">
          <mxGeometry x="170" y="360" width="100" height="80" as="geometry" />
        </mxCell>
        <mxCell id="iIN_RJv5hdqwbPylUk_M-7" value="" style="edgeStyle=orthogonalEdgeStyle;rounded=0;orthogonalLoop=1;jettySize=auto;html=1;" edge="1" parent="WIyWlLk6GJQsqaUBKTNV-1" source="WIyWlLk6GJQsqaUBKTNV-11" target="iIN_RJv5hdqwbPylUk_M-6">
          <mxGeometry relative="1" as="geometry" />
        </mxCell>
        <mxCell id="WIyWlLk6GJQsqaUBKTNV-11" value="出牌" style="rounded=1;whiteSpace=wrap;html=1;fontSize=12;glass=0;strokeWidth=1;shadow=0;" parent="WIyWlLk6GJQsqaUBKTNV-1" vertex="1">
          <mxGeometry x="160" y="470" width="120" height="40" as="geometry" />
        </mxCell>
        <mxCell id="iIN_RJv5hdqwbPylUk_M-1" value="" style="edgeStyle=orthogonalEdgeStyle;rounded=0;orthogonalLoop=1;jettySize=auto;html=1;" edge="1" parent="WIyWlLk6GJQsqaUBKTNV-1" source="WIyWlLk6GJQsqaUBKTNV-12" target="WIyWlLk6GJQsqaUBKTNV-10">
          <mxGeometry relative="1" as="geometry" />
        </mxCell>
        <mxCell id="WIyWlLk6GJQsqaUBKTNV-12" value="出牌提示" style="rounded=1;whiteSpace=wrap;html=1;fontSize=12;glass=0;strokeWidth=1;shadow=0;" parent="WIyWlLk6GJQsqaUBKTNV-1" vertex="1">
          <mxGeometry x="160" y="280" width="120" height="40" as="geometry" />
        </mxCell>
        <mxCell id="iIN_RJv5hdqwbPylUk_M-9" value="" style="edgeStyle=orthogonalEdgeStyle;rounded=0;orthogonalLoop=1;jettySize=auto;html=1;" edge="1" parent="WIyWlLk6GJQsqaUBKTNV-1" source="iIN_RJv5hdqwbPylUk_M-6" target="iIN_RJv5hdqwbPylUk_M-8">
          <mxGeometry relative="1" as="geometry" />
        </mxCell>
        <mxCell id="iIN_RJv5hdqwbPylUk_M-6" value="显示" style="rounded=1;whiteSpace=wrap;html=1;fontSize=12;glass=0;strokeWidth=1;shadow=0;" vertex="1" parent="WIyWlLk6GJQsqaUBKTNV-1">
          <mxGeometry x="160" y="550" width="120" height="40" as="geometry" />
        </mxCell>
        <mxCell id="iIN_RJv5hdqwbPylUk_M-11" value="" style="edgeStyle=orthogonalEdgeStyle;rounded=0;orthogonalLoop=1;jettySize=auto;html=1;" edge="1" parent="WIyWlLk6GJQsqaUBKTNV-1" source="iIN_RJv5hdqwbPylUk_M-8" target="iIN_RJv5hdqwbPylUk_M-10">
          <mxGeometry relative="1" as="geometry" />
        </mxCell>
        <mxCell id="iIN_RJv5hdqwbPylUk_M-8" value="下一位提示" style="rounded=1;whiteSpace=wrap;html=1;fontSize=12;glass=0;strokeWidth=1;shadow=0;" vertex="1" parent="WIyWlLk6GJQsqaUBKTNV-1">
          <mxGeometry x="160" y="650" width="120" height="40" as="geometry" />
        </mxCell>
        <mxCell id="iIN_RJv5hdqwbPylUk_M-10" value="切换下一位玩家" style="rounded=1;whiteSpace=wrap;html=1;fontSize=12;glass=0;strokeWidth=1;shadow=0;" vertex="1" parent="WIyWlLk6GJQsqaUBKTNV-1">
          <mxGeometry x="160" y="730" width="120" height="40" as="geometry" />
        </mxCell>
        <mxCell id="iIN_RJv5hdqwbPylUk_M-16" style="edgeStyle=orthogonalEdgeStyle;rounded=0;orthogonalLoop=1;jettySize=auto;html=1;" edge="1" parent="WIyWlLk6GJQsqaUBKTNV-1" source="iIN_RJv5hdqwbPylUk_M-14">
          <mxGeometry relative="1" as="geometry">
            <mxPoint x="220" y="260" as="targetPoint" />
            <Array as="points">
              <mxPoint x="420" y="260" />
            </Array>
          </mxGeometry>
        </mxCell>
        <mxCell id="iIN_RJv5hdqwbPylUk_M-17" value="Yes" style="edgeLabel;html=1;align=center;verticalAlign=middle;resizable=0;points=[];" vertex="1" connectable="0" parent="iIN_RJv5hdqwbPylUk_M-16">
          <mxGeometry x="-0.8609" y="-1" relative="1" as="geometry">
            <mxPoint x="21" y="-6" as="offset" />
          </mxGeometry>
        </mxCell>
        <mxCell id="iIN_RJv5hdqwbPylUk_M-22" style="edgeStyle=orthogonalEdgeStyle;rounded=0;orthogonalLoop=1;jettySize=auto;html=1;" edge="1" parent="WIyWlLk6GJQsqaUBKTNV-1" source="iIN_RJv5hdqwbPylUk_M-14">
          <mxGeometry relative="1" as="geometry">
            <mxPoint x="220" y="620" as="targetPoint" />
            <Array as="points">
              <mxPoint x="520" y="190" />
              <mxPoint x="520" y="620" />
            </Array>
          </mxGeometry>
        </mxCell>
        <mxCell id="iIN_RJv5hdqwbPylUk_M-14" value="是否要接牌？" style="rhombus;whiteSpace=wrap;html=1;shadow=0;fontFamily=Helvetica;fontSize=12;align=center;strokeWidth=1;spacing=6;spacingTop=-4;" vertex="1" parent="WIyWlLk6GJQsqaUBKTNV-1">
          <mxGeometry x="370" y="150" width="100" height="80" as="geometry" />
        </mxCell>
      </root>
    </mxGraphModel>
  </diagram>
</mxfile>
